<svg width="12" height="12" viewBox="0 0 12 12" fill="none" xmlns="http://www.w3.org/2000/svg">
<path d="M6 0C6.10609 0 6.20783 0.0421428 6.28284 0.117157C6.35786 0.192172 6.4 0.293913 6.4 0.4V5.6H11.6C11.7061 5.6 11.8078 5.64214 11.8828 5.71716C11.9579 5.79217 12 5.89391 12 6C12 6.10609 11.9579 6.20783 11.8828 6.28284C11.8078 6.35786 11.7061 6.4 11.6 6.4H6.4V11.6C6.4 11.7061 6.35786 11.8078 6.28284 11.8828C6.20783 11.9579 6.10609 12 6 12C5.89391 12 5.79217 11.9579 5.71716 11.8828C5.64214 11.8078 5.6 11.7061 5.6 11.6V6.4H0.4C0.293913 6.4 0.192172 6.35786 0.117157 6.28284C0.0421428 6.20783 0 6.10609 0 6C0 5.89391 0.0421428 5.79217 0.117157 5.71716C0.192172 5.64214 0.293913 5.6 0.4 5.6H5.6V0.4C5.6 0.293913 5.64214 0.192172 5.71716 0.117157C5.79217 0.0421428 5.89391 0 6 0Z" fill="#202020"/>
</svg>
