<svg width="16" height="16" viewBox="0 0 16 16" fill="none" xmlns="http://www.w3.org/2000/svg">
<path d="M2 8C2 7.21207 2.15519 6.43185 2.45672 5.7039C2.75825 4.97595 3.20021 4.31451 3.75736 3.75736C4.31451 3.20021 4.97595 2.75825 5.7039 2.45672C6.43185 2.15519 7.21207 2 8 2C8.78793 2 9.56815 2.15519 10.2961 2.45672C11.0241 2.75825 11.6855 3.20021 12.2426 3.75736C12.7998 4.31451 13.2417 4.97595 13.5433 5.7039C13.8448 6.43185 14 7.21207 14 8C14 9.5913 13.3679 11.1174 12.2426 12.2426C11.1174 13.3679 9.5913 14 8 14C6.4087 14 4.88258 13.3679 3.75736 12.2426C2.63214 11.1174 2 9.5913 2 8ZM8 1C6.14348 1 4.36301 1.7375 3.05025 3.05025C1.7375 4.36301 1 6.14348 1 8C1 9.85652 1.7375 11.637 3.05025 12.9497C4.36301 14.2625 6.14348 15 8 15C9.85652 15 11.637 14.2625 12.9497 12.9497C14.2625 11.637 15 9.85652 15 8C15 6.14348 14.2625 4.36301 12.9497 3.05025C11.637 1.7375 9.85652 1 8 1ZM10.854 6.854C10.9479 6.76011 11.0006 6.63278 11.0006 6.5C11.0006 6.36722 10.9479 6.23989 10.854 6.146C10.7601 6.05211 10.6328 5.99937 10.5 5.99937C10.3672 5.99937 10.2399 6.05211 10.146 6.146L7.25 9.043L5.854 7.646C5.80751 7.59951 5.75232 7.56264 5.69158 7.53748C5.63084 7.51232 5.56574 7.49937 5.5 7.49937C5.43426 7.49937 5.36916 7.51232 5.30842 7.53748C5.24768 7.56264 5.19249 7.59951 5.146 7.646C5.09951 7.69249 5.06264 7.74768 5.03748 7.80842C5.01232 7.86916 4.99937 7.93426 4.99937 8C4.99937 8.06574 5.01232 8.13084 5.03748 8.19158C5.06264 8.25232 5.09951 8.30751 5.146 8.354L6.896 10.104C6.94245 10.1506 6.99762 10.1875 7.05837 10.2127C7.11911 10.2379 7.18423 10.2509 7.25 10.2509C7.31577 10.2509 7.38089 10.2379 7.44163 10.2127C7.50238 10.1875 7.55755 10.1506 7.604 10.104L10.854 6.854Z" fill="#202020"/>
</svg>
